<svg xmlns="http://www.w3.org/2000/svg" width="20" height="18" viewBox="0 0 20 18"><path fill="#39455c" d="M18.57 5.22c0-3.13-2.12-3.79-3.9-3.79-1.67 0-3.54 1.8-4.12 2.49a.75.75 0 0 1-1.1 0C8.87 3.23 7 1.43 5.33 1.43c-1.78 0-3.9.66-3.9 3.79 0 2.05 2.06 3.94 2.09 3.97L10 15.44l6.47-6.24c.04-.04 2.1-1.93 2.1-3.98zm1.43 0c0 2.68-2.46 4.93-2.56 5.03l-6.95 6.69a.66.66 0 0 1-.49.2.66.66 0 0 1-.49-.2l-6.97-6.72C2.46 10.15 0 7.9 0 5.22 0 1.95 2 0 5.33 0 7.29 0 9.12 1.54 10 2.41 10.88 1.54 12.71 0 14.67 0 18 0 20 1.95 20 5.22z"/></svg>